# xmcd CD database file generated by Grip 2.96
# 
# Track frame offsets:
#       151
#       66436
#       90455
#       126339
#       138121
#       176630
#       198767
# 
# Disc length: 3287 seconds
# 
# Revision: 0
# Processed by: cddbd v1.4PL0 Copyright (c) Steve Scherf et al.
# Submitted via: Grip 2.96
# 
DISCID=5d0cd507
DTITLE=Santana - The Fineless Collection CD2
DYEAR=1900
DGENRE=
TTITLE0=Santana jam
TTITLE1=Persuasion
TTITLE2=Jam in G minor
TTITLE3=Acapulco sunrise
TTITLE4=Jam in E
TTITLE5=Travelin' blues
TTITLE6=Fried neckbones
EXTD=
EXTT0=
EXTT1=
EXTT2=
EXTT3=
EXTT4=
EXTT5=
EXTT6=
PLAYORDER=
